# xmcd CD database file
#
# Track frame offsets:
#	150
#	21285
#	42474
#
# Disc length: 870 seconds
#
# Revision: 0
# Processed by: cddbd v1.5.1PL0 Copyright (c) Steve Scherf et al.
# Submitted via: CDex 1.51
#
DISCID=20036403
DTITLE=ミルフィーユ・桜庭/新谷良子 - Born to be happy
DYEAR=2005
DGENRE=Vocal
TTITLE0=Born to be happy
TTITLE1=Born to be happy　*karaoke
TTITLE2=ミルフィーユがDJ エルシオールラジオ
EXTD=YEAR: 2005
EXTT0=
EXTT1=
EXTT2=
PLAYORDER=
